<svg width="473" height="473" viewBox="0 0 473 473" fill="none" xmlns="http://www.w3.org/2000/svg">
<g clip-path="url(#clip0_27_1351)">
<circle cx="236.5" cy="236.5" r="236.5" fill="#160C18"/>
<mask id="mask0_27_1351" style="mask-type:luminance" maskUnits="userSpaceOnUse" x="71" y="100" width="331" height="269">
<path d="M402 100H71V368.517H402V100Z" fill="white"/>
</mask>
<g mask="url(#mask0_27_1351)">
<path d="M201.581 312.238C198.879 317.2 202.458 323.251 208.099 323.26L243.461 323.317C246.213 323.321 248.742 321.803 250.037 319.371L334.804 160.065C337.445 155.101 333.855 149.107 328.24 149.107H314.601H294.842C292.12 149.107 289.616 150.596 288.312 152.99L201.581 312.238Z" fill="#F5F5F5"/>
<path d="M301.695 247.437C299.106 252.399 302.699 258.342 308.287 258.342H320.179H338.078C340.8 258.342 343.304 256.853 344.608 254.459L395.999 160.069C398.703 155.103 395.115 149.048 389.469 149.048H377.825H357.54C354.771 149.048 352.231 150.589 350.948 153.048L301.695 247.437Z" fill="#F5F5F5"/>
<path d="M165.609 152.646C166.841 150.047 169.456 148.39 172.328 148.39L266.287 148.391C272.012 148.391 275.591 154.601 272.728 159.569L254.148 191.809C252.819 194.115 250.364 195.535 247.707 195.535L157.048 195.536C151.585 195.536 147.986 189.832 150.329 184.888L165.609 152.646Z" fill="#F5F5F5"/>
<path d="M106.103 215.989C107.335 213.389 109.95 211.733 112.822 211.733L206.781 211.733C212.507 211.733 216.086 217.943 213.223 222.911L194.642 255.152C193.314 257.457 190.858 258.878 188.201 258.878L97.5425 258.878C92.0791 258.878 88.4799 253.175 90.8232 248.23L106.103 215.989Z" fill="#F5F5F5"/>
<path d="M94.9458 279.331C96.1777 276.732 98.7931 275.075 101.665 275.075L195.624 275.075C201.349 275.075 204.928 281.285 202.065 286.253L183.485 318.494C182.156 320.8 179.701 322.22 177.044 322.22L86.3853 322.221C80.9218 322.221 77.3226 316.517 79.666 311.573L94.9458 279.331Z" fill="#F5F5F5"/>
</g>
</g>
<defs>
<clipPath id="clip0_27_1351">
<rect width="473" height="473" fill="white"/>
</clipPath>
</defs>
</svg>
