<svg width="329" height="329" viewBox="0 0 329 329" fill="none" xmlns="http://www.w3.org/2000/svg">
<g clip-path="url(#clip0_429_4061)">
<circle cx="175.565" cy="169.725" r="87.965" fill="#FFF37E"/>
<path fill-rule="evenodd" clip-rule="evenodd" d="M149.669 0.685165C92.5578 5.97313 42.7187 40.137 17.1676 91.5129C-0.284483 126.605 -4.62469 167.23 5.03805 205.041C9.19508 221.306 17.5579 240.488 26.4498 254.155C35.1076 267.461 50.0483 283.848 62.4055 293.592C84.2331 310.804 110.532 322.318 139.061 327.154C149.647 328.949 179.395 328.949 189.981 327.154C226.308 320.996 258.16 304.332 282.841 278.571C306.34 254.044 320.987 224.865 326.874 190.849C328.417 181.937 329.048 155.676 327.942 146.452C324.741 119.778 315.82 95.2496 301.441 73.592C268.104 23.3804 209.356 -4.84046 149.669 0.685165ZM226.059 108.455C229.518 111.585 229.33 117.259 225.312 131.08C221.787 143.204 203.31 197.348 192.089 228.432C188.742 237.705 185.044 245.128 182.67 247.34C179.989 249.839 175.441 250.134 172.317 248.011C167.568 244.783 164.043 238.994 155.17 219.849C147.004 202.228 144.707 198.105 141.266 194.886C137.487 191.351 134.081 189.545 111.594 179.149C92.5274 170.336 88.1412 166.769 88.1412 160.08C88.1412 156.521 89.7622 153.77 93.2693 151.377C96.8287 148.95 101.721 147.039 125.27 138.874C134.994 135.503 145.815 131.68 149.316 130.378C161.46 125.863 194.216 114.098 203.772 110.819C216.151 106.57 223.156 105.827 226.059 108.455Z" fill="#F36A59"/>
<g clip-path="url(#clip1_429_4061)">
<path d="M78.4325 192.656L78.7861 192.565L78.4325 192.656C80.807 201.946 85.5803 212.896 90.6611 220.705C95.6079 228.308 104.134 237.66 111.196 243.228C123.663 253.059 138.682 259.633 154.969 262.394C158.013 262.91 163.777 263.165 169.514 263.165C175.251 263.165 181.015 262.91 184.059 262.394C204.8 258.878 222.992 249.362 237.088 234.649C250.508 220.642 258.874 203.976 262.235 184.554C262.679 181.99 262.988 176.963 263.109 171.939C263.229 166.914 263.163 161.844 262.845 159.192C261.018 143.962 255.923 129.954 247.71 117.584C228.672 88.9079 195.121 72.7904 161.032 75.9464L161.065 76.3098L161.032 75.9464C128.415 78.9663 99.9517 98.4778 85.3597 127.818C75.3926 147.859 72.9137 171.06 78.4325 192.656Z" stroke="#F36A59" stroke-width="0.73"/>
</g>
</g>
<defs>
<clipPath id="clip0_429_4061">
<rect width="328.5" height="328.5" fill="white"/>
</clipPath>
<clipPath id="clip1_429_4061">
<rect width="175.2" height="175.2" fill="white" transform="translate(81.76 81.76)"/>
</clipPath>
</defs>
</svg>
